<?xml version="1.0" encoding="utf-8"?>
<!-- Generator: Adobe Illustrator 16.0.0, SVG Export Plug-In . SVG Version: 6.00 Build 0)  -->
<!DOCTYPE svg PUBLIC "-//W3C//DTD SVG 1.1//EN" "http://www.w3.org/Graphics/SVG/1.1/DTD/svg11.dtd">
<svg version="1.1" id="Layer_1" xmlns="http://www.w3.org/2000/svg" xmlns:xlink="http://www.w3.org/1999/xlink" x="0px" y="0px"
	 width="1136.943px" height="394.479px" viewBox="0 0 1136.943 394.479" enable-background="new 0 0 1136.943 394.479"
	 xml:space="preserve">
<g>
	<path fill="#ECECEC" d="M212.453,36.535L193.343,71c-21.386-9.555-39.701-14.332-54.94-14.332c-25.481,0-46.356,9.16-62.618,27.47
		c-16.268,18.315-24.399,40.325-24.399,66.03c0,21.387,6.143,39.02,18.427,52.894c12.285,13.879,29.005,20.815,50.163,20.815
		c15.921,0,33.101-3.637,51.528-10.92l6.484,34.124c-21.387,9.102-43.226,13.65-65.519,13.65c-31.854,0-57.617-9.726-77.292-29.177
		c-19.68-19.45-29.518-45.098-29.518-76.95c0-38.443,13.138-70.52,39.414-96.23c26.276-25.705,58.748-38.561,97.425-38.561
		C164.562,19.814,187.883,25.391,212.453,36.535z"/>
	<path fill="#ECECEC" d="M387.85,158.359c0,28.664-9.843,52.893-29.518,72.685c-19.681,19.792-43.85,29.688-72.515,29.688
		c-22.98,0-41.461-6.878-55.452-20.646c-13.991-13.762-20.986-32.13-20.986-55.11c0-28.665,9.838-52.893,29.518-72.686
		c19.675-19.792,43.85-29.688,72.515-29.688c22.975,0,41.461,6.883,55.452,20.645C380.854,117.015,387.85,135.383,387.85,158.359z
		 M342.124,159.382c0-11.603-2.618-21.269-7.849-29.006c-6.143-8.643-14.791-12.967-25.935-12.967
		c-15.927,0-29.006,7.283-39.243,21.84c-9.331,13.196-13.991,28.099-13.991,44.702c0,11.603,2.613,21.274,7.849,29.006
		c6.143,8.648,14.786,12.968,25.935,12.968c15.921,0,29.118-7.278,39.584-21.84C337.57,190.894,342.124,175.992,342.124,159.382z"/>
	<path fill="#ECECEC" d="M494.996,6.505l-43.338,205.087c-0.229,1.142-0.341,2.618-0.341,4.437c0,6.143,3.295,9.214,9.896,9.214
		c3.413,0,7.049-0.795,10.919-2.389l5.46,31.053c-13.426,4.319-25.369,6.483-35.83,6.483c-22.751,0-34.125-10.802-34.125-32.418
		c0-5.001,0.682-10.69,2.047-17.062L453.023,6.505H494.996z"/>
	<path fill="#ECECEC" d="M591.226,6.505l-43.338,205.087c-0.229,1.142-0.341,2.618-0.341,4.437c0,6.143,3.295,9.214,9.896,9.214
		c3.412,0,7.049-0.795,10.919-2.389l5.46,31.053c-13.426,4.319-25.37,6.483-35.831,6.483c-22.751,0-34.124-10.802-34.124-32.418
		c0-5.001,0.682-10.69,2.047-17.062L549.252,6.505H591.226z"/>
	<path fill="#ECECEC" d="M759.117,129.353c0,4.777-0.57,9.784-1.707,15.015l-17.744,81.898c-0.912,4.324-1.594,12.285-2.047,23.887
		c-20.934,6.825-44.25,10.237-69.955,10.237c-48.686,0-73.026-15.579-73.026-46.75c0-21.381,10.579-36.966,31.735-46.75
		c7.961-3.866,27.641-9.097,59.035-15.697c21.157-4.549,31.736-11.032,31.736-19.451c0-9.325-8.42-13.991-25.252-13.991
		c-15.927,0-33.102,3.53-51.528,10.579l-11.261-31.736c25.252-9.325,47.998-13.99,68.248-13.99c17.287,0,31.395,3.412,42.314,10.237
		C752.632,101.03,759.117,113.203,759.117,129.353z M709.294,174.056c-4.095,2.959-12.514,5.918-25.252,8.872
		c-15.243,3.412-25.369,6.143-30.37,8.189c-9.555,4.324-14.332,10.237-14.332,17.745c0,11.831,9.896,17.744,29.688,17.744
		c11.373,0,21.722-1.247,31.053-3.753c0-3.637,0.341-7.166,1.023-10.579L709.294,174.056z"/>
	<path fill="#ECECEC" d="M958.74,97.618c-2.048,5.235-4.666,12.967-7.849,23.204l-31.054,151.854
		c-4.095,20.475-14.673,36.055-31.735,46.75c-15.015,9.555-33.671,14.332-55.964,14.332c-20.933,0-40.154-3.87-57.67-11.602
		l16.038-32.76c16.15,6.596,30.371,9.896,42.655,9.896c15.016,0,26.5-4.437,34.466-13.309c6.596-7.508,11.373-19.109,14.333-34.807
		c-10.014,3.871-19.793,5.801-29.348,5.801c-20.934,0-37.824-6.537-50.675-19.621c-12.854-13.08-19.28-30.083-19.28-51.017
		c0-30.712,10.179-55.676,30.542-74.902c20.356-19.222,46.009-28.835,76.95-28.835C913.125,82.603,935.988,87.61,958.74,97.618z
		 M910.625,121.846c-8.19-2.501-16.497-3.754-24.911-3.754c-17.291,0-31.395,6.713-42.313,20.133
		c-10.014,12.515-15.016,27.641-15.016,45.386c0,11.603,3.184,21.274,9.555,29.006c7.049,8.419,16.263,12.626,27.641,12.626
		c7.732,0,15.239-1.931,22.522-5.802l18.769-87.699C907.324,129.241,908.577,125.941,910.625,121.846z"/>
	<path fill="#ECECEC" d="M1135.16,151.875c0,11.831-2.506,23.434-7.508,34.807H1014.36c-0.229,12.514,3.466,22.127,11.091,28.835
		c7.619,6.713,17.797,10.066,30.541,10.066c12.967,0,27.411-3.183,43.338-9.555l10.237,31.395
		c-18.204,8.872-36.972,13.309-56.306,13.309c-24.569,0-44.138-6.708-58.693-20.134c-15.244-14.103-22.863-33.324-22.863-57.67
		c0-27.753,8.643-51.187,25.934-70.296c17.969-20.017,40.608-30.029,67.908-30.029c20.475,0,37.195,6.483,50.162,19.45
		C1128.676,115.021,1135.16,131.629,1135.16,151.875z M1093.187,148.122c0-8.414-2.848-15.751-8.531-22.011
		c-5.689-6.254-12.743-9.384-21.157-9.384c-10.466,0-19.621,3.7-27.47,11.091c-7.849,7.395-13.367,16.326-16.551,26.787h73.026
		C1092.958,151.875,1093.187,149.715,1093.187,148.122z"/>
</g>
<g>
	<path fill="#ECECEC" d="M302.991,353.59c0,2.959-1.088,5.362-3.259,7.21c-2.173,1.849-4.738,2.773-7.695,2.773
		c-2.683,0-4.923-0.855-6.726-2.565c-1.803-1.709-2.704-3.904-2.704-6.587c0-2.957,1.04-5.407,3.12-7.349s4.598-2.912,7.557-2.912
		c2.68,0,4.968,0.925,6.864,2.773C302.042,348.785,302.991,351.002,302.991,353.59z"/>
	<path fill="#ECECEC" d="M382.029,296.599l-6.794,13.034c-5.917-2.864-11.418-4.299-16.501-4.299
		c-6.656,0-12.157,2.475-16.501,7.419c-4.346,4.946-6.517,10.794-6.517,17.541c0,12.573,5.962,18.858,17.888,18.858
		c4.621,0,9.706-1.109,15.253-3.328l4.021,12.341c-6.656,3.421-13.728,5.131-21.215,5.131c-10.17,0-18.397-2.819-24.682-8.459
		c-6.565-5.823-9.845-13.728-9.845-23.711c0-11.462,3.974-21.029,11.925-28.703c7.95-7.672,17.656-11.51,29.12-11.51
		C365.574,290.914,373.523,292.81,382.029,296.599z"/>
	<path fill="#ECECEC" d="M457.599,321.835c0,11.648-4,21.493-11.994,29.536c-7.997,8.042-17.818,12.063-29.466,12.063
		c-9.338,0-16.847-2.795-22.533-8.39c-5.686-5.592-8.528-13.056-8.528-22.394c0-11.647,3.998-21.493,11.995-29.535
		c7.995-8.043,17.818-12.064,29.466-12.064c9.336,0,16.848,2.798,22.533,8.39C454.756,305.036,457.599,312.5,457.599,321.835z
		 M439.018,322.251c0-4.714-1.063-8.643-3.189-11.786c-2.496-3.512-6.01-5.27-10.539-5.27c-6.472,0-11.786,2.96-15.946,8.875
		c-3.792,5.362-5.685,11.418-5.685,18.165c0,4.715,1.062,8.645,3.189,11.786c2.496,3.515,6.008,5.27,10.539,5.27
		c6.469,0,11.832-2.958,16.085-8.875C437.168,335.056,439.018,329,439.018,322.251z"/>
	<path fill="#ECECEC" d="M571.856,311.297c0,2.405-0.416,5.595-1.248,9.568l-8.597,41.044h-17.056l9.151-43.401
		c0.369-1.755,0.555-3.28,0.555-4.576c0-5.73-3.236-8.598-9.706-8.598c-3.698,0-8.09,1.203-13.173,3.605
		c0,1.941-0.648,5.963-1.941,12.064l-8.736,40.905H504.05l9.429-44.511c0.368-1.755,0.555-3.142,0.555-4.16
		c0-5.27-2.96-7.904-8.875-7.904c-3.328,0-8.09,1.157-14.282,3.467c-0.093,1.296-0.231,2.729-0.416,4.299l-10.538,48.81h-17.056
		c2.68-11.277,6.656-29.304,11.925-54.079c0.462-1.941,0.739-5.176,0.832-9.706c13.403-4.715,24.496-7.072,33.279-7.072
		c8.411,0,14.467,1.896,18.165,5.686c8.688-3.789,16.73-5.686,24.127-5.686C564.968,291.052,571.856,297.801,571.856,311.297z"/>
	<path fill="#ECECEC" d="M601.112,353.59c0,2.959-1.087,5.362-3.258,7.21c-2.173,1.849-4.739,2.773-7.696,2.773
		c-2.682,0-4.922-0.855-6.725-2.565c-1.802-1.709-2.704-3.904-2.704-6.587c0-2.957,1.04-5.407,3.12-7.349
		c2.08-1.941,4.598-2.912,7.557-2.912c2.68,0,4.968,0.925,6.864,2.773C600.164,348.785,601.112,351.002,601.112,353.59z"/>
	<path fill="#ECECEC" d="M684.171,311.436c0,2.683-0.416,6.011-1.248,9.983l-8.458,40.49H657.41l8.736-41.599
		c0.461-2.219,0.692-4.112,0.692-5.686c0-6.102-3.743-9.152-11.231-9.152c-4.9,0-9.754,0.832-14.56,2.496
		c0,1.941-0.093,3.328-0.277,4.16l-10.816,49.78h-17.055l11.647-54.634c0.277-1.478,0.555-4.714,0.832-9.706
		c13.034-4.344,24.45-6.518,34.25-6.518C675.991,291.052,684.171,297.847,684.171,311.436z"/>
	<path fill="#ECECEC" d="M765.289,297.154c-0.832,2.128-1.896,5.27-3.189,9.429l-12.619,61.706
		c-1.663,8.319-5.962,14.65-12.896,18.996c-6.101,3.883-13.682,5.824-22.74,5.824c-8.507,0-16.317-1.573-23.435-4.715l6.518-13.312
		c6.563,2.681,12.341,4.021,17.333,4.021c6.101,0,10.768-1.803,14.005-5.408c2.68-3.051,4.621-7.765,5.824-14.144
		c-4.069,1.573-8.043,2.357-11.926,2.357c-8.506,0-15.369-2.656-20.592-7.974c-5.223-5.314-7.834-12.224-7.834-20.729
		c0-12.479,4.136-22.624,12.41-30.437c8.272-7.811,18.696-11.718,31.269-11.718C746.752,291.052,756.043,293.087,765.289,297.154z
		 M745.737,306.999c-3.328-1.016-6.704-1.525-10.122-1.525c-7.027,0-12.758,2.729-17.195,8.182
		c-4.068,5.085-6.101,11.231-6.101,18.442c0,4.715,1.294,8.645,3.883,11.786c2.864,3.421,6.608,5.131,11.231,5.131
		c3.142,0,6.192-0.784,9.151-2.357l7.627-35.637C744.396,310.004,744.905,308.663,745.737,306.999z"/>
</g>
</svg>
