<svg xmlns="http://www.w3.org/2000/svg" viewBox="0 0 536.71 243.21"><defs><style>.cls-1{fill:#f6ae2d;}.cls-2{fill:#ff652d;}.cls-3{fill:#1e1407;}</style></defs><title>Asset 2</title><g id="Layer_2" data-name="Layer 2"><g id="Layer_1-2" data-name="Layer 1"><g id="logo"><path class="cls-1" d="M134.44,89.51,156.2,59.76l43-58.64H242.5L178,89.51l70.44,96H204.63L156.2,119.26Z"/><path class="cls-2" d="M70.44,88.51,5.9.12H49.17l43,58.64,43-58.64H178.5L114,88.51l70.44,96H140.63L92.2,118.26,43.76,184.52H0Z"/><path class="cls-2" d="M245.8,158q-26.43-26.49-26.43-65.71T245.8,26.55Q272.23.12,311.57.12t65.77,26.43Q403.77,53,403.77,92.32t-26.43,65.77q-26.43,26.43-65.77,26.43T245.8,158Zm65.89-7.93q24.46,0,39.83-16.6t15.37-41.18q0-24.59-15.37-41.18t-40.08-16.6q-24.47,0-39.83,16.6T256.25,92.32q0,24.59,15.37,41.18T311.69,150.1Z"/><path class="cls-2" d="M415.37,150.1q24.71-1.11,24.71-26.92V.12h37L477,135.47q0,22-13.52,35.53T428,184.52H403.2V150.1Z"/><path class="cls-2" d="M497.79,0h36.76V184.52H497.79Z"/><path class="cls-3" d="M5.63,197.55,7,199.44q1,1.47,2.55,3.6t3.42,4.71L16.76,213l3.81,5.22q1.86,2.55,3.36,4.65t2.55,3.51q1,1.41,1.29,1.77l1.08-1.53,2.43-3.39,3.33-4.65q1.86-2.61,3.84-5.31t3.87-5.34q1.89-2.64,3.48-4.8t2.67-3.66l1.38-1.92v45.66H42V220.89a4.64,4.64,0,0,1,.12-1,4.84,4.84,0,0,0,.12-.66L27.77,240q-.3-.36-1.47-2l-2.79-3.84q-1.62-2.22-3.42-4.77T16.7,224.7L14,221q-1.11-1.53-1.23-1.77a4.52,4.52,0,0,0,.12.66,4.7,4.7,0,0,1,.12,1v22.32H5.63Z"/><path class="cls-3" d="M146.25,243.21V199.47h29v6.66H153.57v11.76h19.32v6.84H153.57v11.64h22.56v6.84Z"/><path class="cls-3" d="M269.7,199.47H281a27.86,27.86,0,0,1,11.19,2,21.58,21.58,0,0,1,7.47,5.19,19.46,19.46,0,0,1,4.17,7.23,26.48,26.48,0,0,1,1.29,8.07,21.33,21.33,0,0,1-1.77,8.85,20.27,20.27,0,0,1-4.77,6.69,20.83,20.83,0,0,1-7,4.23,24.18,24.18,0,0,1-8.43,1.47H269.7Zm12.36,36.78a19.8,19.8,0,0,0,6.3-1,13.94,13.94,0,0,0,5-2.85,13.05,13.05,0,0,0,3.27-4.62,16,16,0,0,0,1.17-6.33,15.52,15.52,0,0,0-1.41-6.93,13.74,13.74,0,0,0-3.57-4.62,14,14,0,0,0-4.8-2.58,17.19,17.19,0,0,0-5-.81h-5.88v29.7Z"/><path class="cls-3" d="M398.8,199.47h7.38v43.74H398.8Z"/><path class="cls-3" d="M529.46,243.21l-.63-1.5-1.11-2.64q-.66-1.56-1.44-3.45l-1.62-3.93H509.59l-4.8,11.52h-7.26q.24-.54,1.14-2.67t2.25-5.28l3-7q1.65-3.87,3.39-7.89t3.39-7.89l3-7q1.35-3.15,2.25-5.28t1.14-2.67l1.17,2.67q.93,2.13,2.28,5.28l3,7q1.65,3.87,3.39,7.89t3.39,7.89l3,7q1.35,3.15,2.25,5.28t1.14,2.67Zm-17.34-17.7h10l-4.32-10.44a4.31,4.31,0,0,1-.3-.81,12.49,12.49,0,0,1-.36-1.35,12.69,12.69,0,0,1-.36,1.35c-.16.5-.24.77-.24.81Z"/></g></g></g></svg>